#!OML:ASF G:\ViconDB\ViconDB\414\test\team2\shane.ASF
:FULLY-SPECIFIED
:DEGREES
193
root 11.7965 15.3732 -3.27495 357.011 -30.7047 -1.80182
lowerback 14.457 0.178334 3.1108
upperback 7.47648 0.503971 0.743915
thorax -0.189845 0.26702 -1.04821
lowerneck -26.424 0.102224 -1.62094
upperneck 12.6752 1.35623 -3.40134
head 8.2149 0.165301 -0.713352
rclavicle 2.33572e-015 -2.18663e-015
rhumerus -24.0731 2.90285 -66.0042
rradius 38.7799
rwrist 20.0699
rhand -34.9756 -30.03
rfingers 7.12502
rthumb -8.12127 -59.8539
lclavicle 2.33572e-015 -2.18663e-015
lhumerus -32.5228 -30.3025 101.603
lradius 39.3127
lwrist -15.8559
lhand -48.9582 10.6657
lfingers 7.12502
lthumb -21.5889 39.4823
rfemur -26.4218 -27.0458 5.20103
rtibia 50.7934
rfoot -19.7961 -20.2726
rtoes -6.74131
lfemur -8.23598 12.261 -0.308466
ltibia 51.3245
lfoot -38.4579 -0.348706
ltoes -16.1655
194
root 11.8159 15.4165 -3.17413 357.031 -29.7447 -2.14108
lowerback 14.3981 0.17516 2.97885
upperback 7.3244 0.494359 0.850925
thorax -0.323098 0.256616 -0.861404
lowerneck -26.2221 0.220763 -1.68496
upperneck 13.0652 1.55079 -3.40344
head 8.31885 0.248768 -0.676625
rclavicle -7.29043e-014 2.72335e-014
rhumerus -25.0693 4.36427 -67.1694
rradius 40.5636
rwrist 18.9568
rhand -34.882 -28.7068
rfingers 7.12502
rthumb -8.03084 -58.5343
lclavicle -7.29043e-014 2.72335e-014
lhumerus -32.828 -29.7339 102.217
lradius 39.0995
lwrist -15.6818
lhand -48.6998 10.2928
lfingers 7.12502
lthumb -21.3407 39.1377
rfemur -24.9292 -25.0589 4.80932
rtibia 49.7372
rfoot -20.3826 -20.9505
rtoes -7.1253
lfemur -7.88353 11.1727 -0.510743
ltibia 50.7
lfoot -38.3279 -0.0632814
ltoes -16.1434
195
root 11.8256 15.4786 -3.07406 357.112 -28.8768 -2.61701
lowerback 14.4082 0.179481 3.06825
upperback 7.11269 0.525136 0.863137
thorax -0.549648 0.272347 -0.904585
lowerneck -26.1708 0.280262 -1.59974
upperneck 13.6388 1.60018 -3.28043
head 8.50756 0.281269 -0.642272
rclavicle -5.65542e-014 1.03368e-014
rhumerus -26.2244 5.02869 -68.4586
rradius 42.0235
rwrist 20.1024
rhand -34.7857 -27.1346
rfingers 7.12502
rthumb -7.93799 -56.9655
lclavicle -5.65542e-014 1.03368e-014
lhumerus -33.475 -29.8241 102.849
lradius 39.2728
lwrist -14.9064
lhand -48.3267 11.0096
lfingers 7.12502
lthumb -20.9823 39.8947
rfemur -23.4739 -22.4873 4.72955
rtibia 48.6975
rfoot -20.8931 -21.6825
rtoes -7.15111
lfemur -7.37511 10.0644 -0.537755
ltibia 49.9178
lfoot -38.1182 0.233002
ltoes -16.0873
196
root 11.8263 15.5425 -2.97971 357.23 -28.0616 -3.22618
lowerback 14.3988 0.198269 3.20212
upperback 6.95907 0.577761 0.926126
thorax -0.70333 0.299581 -0.922637
lowerneck -26.2999 0.269415 -1.76818
upperneck 14.2603 1.58204 -2.82269
head 8.73613 0.304364 -0.46174
rclavicle -5.34234e-015 1.88845e-014
rhumerus -27.1886 5.97084 -69.9329
rradius 43.2162
rwrist 20.7013
rhand -34.977 -25.5227
rfingers 7.12502
rthumb -8.12258 -55.3466
lclavicle -5.34234e-015 1.88845e-014
lhumerus -33.9125 -29.8032 103.459
lradius 39.1786
lwrist -13.8563
lhand -47.7639 10.5943
lfingers 7.12502
lthumb -20.4415 39.5383
rfemur -22.1208 -19.4699 4.97594
rtibia 47.7699
rfoot -21.5223 -22.0569
rtoes -6.92743
lfemur -6.79492 9.14557 -0.313343
ltibia 49.0282
lfoot -37.7479 0.498925
ltoes -16.0788
197
root 11.8173 15.6055 -2.8808 357.217 -27.4617 -3.48146
lowerback 14.3757 0.281689 2.87032
upperback 6.76039 0.657269 0.969896
thorax -0.904083 0.329651 -0.702938
lowerneck -26.2703 0.441376 -1.68673
upperneck 14.6806 1.77286 -2.68833
head 8.87748 0.407533 -0.400508
rclavicle -3.46755e-014 -4.37326e-015
rhumerus -28.1694 6.94231 -71.3431
rradius 44.244
rwrist 21.7624
rhand -35.4511 -23.2514
rfingers 7.12502
rthumb -8.5801 -53.057
lclavicle -3.46755e-014 -4.37326e-015
lhumerus -34.571 -30.1576 104.156
lradius 39.3211
lwrist -12.4236
lhand -47.4602 11.0636
lfingers 7.12502
lthumb -20.1496 40.0386
rfemur -21.0323 -16.1405 5.06789
rtibia 46.9661
rfoot -22.2146 -21.7953
rtoes -6.25952
lfemur -6.05826 8.21546 -0.417809
ltibia 48.0149
lfoot -37.3451 0.726043
ltoes -16.1922
198
root 11.8024 15.6663 -2.78533 357.33 -26.8398 -3.76245
lowerback 14.2808 0.343549 2.63398
upperback 6.50553 0.718547 0.942021
thorax -1.12395 0.354594 -0.608869
lowerneck -26.2634 0.494299 -1.72545
upperneck 15.0978 1.77954 -2.24514
head 9.01521 0.454437 -0.239477
rclavicle 4.86463e-014 -3.35449e-015
rhumerus -29.1575 7.23137 -72.8427
rradius 45.112
rwrist 24.3856
rhand -35.4655 -21.1867
rfingers 7.12502
rthumb -8.59406 -50.9918
lclavicle 4.86463e-014 -3.35449e-015
lhumerus -35.291 -30.1985 104.578
lradius 39.5909
lwrist -11.0539
lhand -46.6143 10.11
lfingers 7.12502
lthumb -19.3365 39.1686
rfemur -20.2752 -12.7476 5.37174
rtibia 46.3557
rfoot -22.3516 -21.0909
rtoes -6.74544
lfemur -5.45767 7.43332 -0.436465
ltibia 46.9806
lfoot -36.9267 0.88526
ltoes -16.377
199
root 11.7836 15.722 -2.68918 357.527 -26.3381 -4.23138
lowerback 14.0339 0.363408 2.56325
upperback 6.31948 0.739572 1.02211
thorax -1.18993 0.363075 -0.48772
lowerneck -26.3838 0.654406 -1.7748
upperneck 15.5987 2.00923 -2.12656
head 9.20957 0.563322 -0.155175
rclavicle 1.75179e-014 -2.08724e-015
rhumerus -29.8331 8.10794 -74.4468
rradius 45.7805
rwrist 26.3223
rhand -35.6474 -19.8616
rfingers 7.12502
rthumb -8.76954 -49.6594
lclavicle 1.75179e-014 -2.08724e-015
lhumerus -35.8585 -30.0557 104.955
lradius 39.3681
lwrist -11.663
lhand -46.2449 10.6186
lfingers 7.12502
lthumb -18.9812 39.7124
rfemur -19.7089 -9.59452 6.01692
rtibia 45.9506
rfoot -22.4562 -19.8159
rtoes -7.18533
lfemur -4.79385 6.69729 -0.236429
ltibia 45.9519
lfoot -36.6022 1.11193
ltoes -16.4074
